<svg xmlns="http://www.w3.org/2000/svg" xmlns:xlink="http://www.w3.org/1999/xlink" id="Layer_1" viewBox="0 0 134 27" style="enable-background:new 0 0 134 27;"><style>.st0{fill:#53534D;}</style><g><path class="st0" d="M12.6 14.8c1.6.4 2.5 1.9 2.5 3.5.0 3.6-3.2 6.6-8.5 6.6-1.3.0-3.2-.1-5.6-.1L4.6 5.9c1.6-.1 4-.1 6.1-.1 3.6.0 5.6 1.3 5.6 3.8C16.3 12.2 14.6 13.9 12.6 14.8zM8.1 16.4c-.7.0-1.5.0-1.9.0l-1 5.3c.4.1 1.1.1 1.8.1 2.8.0 4.2-1.6 4.2-3.4.0-1.3-1-2-3.1-2zM9.8 8.7c-.8.0-1.5.0-2.1.1l-1 4.9c.4.0.8.0 1.3.0 2.6.0 4.5-1.2 4.5-3.3C12.5 9.3 11.8 8.7 9.8 8.7z"/><path class="st0" d="M28.9 22c.6.1 1.5.2 2.3.3l-.4 2.2c-1.8.2-3.9.3-5.8.3.2-1.1.6-2.5 1.3-4.5h-.1c-1.1 2.1-3.1 4.7-5.8 4.7-2.1.0-3.3-1.4-3.3-4.4.0-5.3 2.8-10.2 9-10.2 1.7.0 3.4.1 4.9.4L28.9 22zm-3.5-8.6c-3.2.0-4.7 3.8-4.7 6.7.0 1.4.4 1.9 1.1 1.9 2 0 4.5-4.6 5.1-7.5l.2-.9C26.5 13.5 26 13.4 25.4 13.4zM24.1 8.5c-1.1.0-1.9-.9-1.9-1.9.0-1.2.9-2 2-2s1.9.8 1.9 1.9c0 1.2-1 2-2 2zm5.6.0c-1.1.0-1.9-.9-1.9-1.9.0-1.1 1-2 2-2 1.1.0 1.9.8 1.9 1.9C31.7 7.7 30.8 8.5 29.7 8.5z"/><path class="st0" d="M43.7 14.1c-2.4-.9-4.8 3.2-5.7 7.7l-.6 3h-3.5L36 13.7v-.1c-.6-.1-1.5-.2-2.4-.3l.4-2.2c1.8-.2 4-.3 5.8-.3-.2 1.1-.5 2.3-1.2 4.2h.1c1.5-3 3-5 5.6-4.5L43.7 14.1z"/><path class="st0" d="M47.7 19.1c0 .3-.1.8-.1 1.1.0 1.6.6 2.1 2.6 2.1 1.3.0 2.8-.3 4.1-.8v2.7c-1.5.6-3.4.9-5.2.9-3.5.0-4.9-1.6-4.9-4.7.0-5.8 3.5-9.8 7.9-9.8 3.5.0 4.5 1.7 4.5 3.4C56.5 17.3 53.2 18.9 47.7 19.1zm3.9-5.9c-1.8.0-3 1.7-3.5 3.5 3.2-.1 4.9-.8 4.9-2.3C53 13.6 52.5 13.2 51.6 13.2z"/><path class="st0" d="M70.3 24.8h-3.5l1.7-8.8c.3-1.7.0-2.4-.8-2.4-1.9.0-4.4 4.4-5 7.6l-.7 3.5h-3.5l2.1-11.1v-.1c-.6-.1-1.5-.2-2.4-.3l.4-2.2c1.8-.2 4-.3 5.8-.3-.2.8-.5 2.2-1.3 4.4h.1c1.3-2.5 3.2-4.7 5.9-4.7s3.5 1.9 3 4.6L70.3 24.8z"/><path class="st0" d="M86.1 24.8h-3.5l1.7-8.8c.3-1.7.1-2.4-.8-2.4-1.9.0-4.4 4.4-5 7.6l-.7 3.5h-3.5L77.7 7v-.1c-.6-.1-1.6-.2-2.4-.3l.4-2.2c1.8-.2 4-.3 6-.3L80.6 10c-.2 1.2-.6 2.6-1.5 5h.1c1.3-2.5 3.2-4.7 5.9-4.7s3.5 1.9 3 4.6L86.1 24.8z"/><path class="st0" d="M95.5 25.1c-3.9.0-5.4-1.9-5.4-5 0-5.8 3.9-9.5 8.4-9.5 4 0 5.5 2.1 5.5 5.1C104 21.4 99.9 25.1 95.5 25.1zM98 13.6c-2.6.0-4.2 3.1-4.2 5.9.0 1.5.6 2.5 2.2 2.5 2.5.0 4.2-2.8 4.2-5.9C100.3 14.5 99.6 13.6 98 13.6zM96.4 8.5c-1.1.0-1.9-.9-1.9-1.9.0-1.2.9-2 2-2s1.9.8 1.9 1.9C98.4 7.7 97.5 8.5 96.4 8.5zM102.1 8.5c-1.1.0-1.9-.9-1.9-1.9.0-1.1 1-2 2-2 1.1.0 1.9.8 1.9 1.9.0 1.2-.899999999999992 2-2 2z"/><path class="st0" d="M105.8 25.3l2.2-11.7h-2.4l.6-2.8h2.4l.2-1.1c.7-3.7 2.6-5.7 6.5-5.7.8.0 1.5.1 2.3.3l-.8 2.9c-.5-.2-1.2-.3-1.7-.3-1.6.0-2.4.8-2.8 2.9l-.2 1h3.2l-.5 2.8h-3.2l-2.2 11.7H105.8z"/><path class="st0" d="M118.6 24.8h-3.5l3.4-17.7V7c-.6-.1-1.6-.2-2.4-.3l.4-2.2c1.8-.2 4-.3 6-.3L118.6 24.8z"/><path class="st0" d="M126.9 24.8h-3.5l2.1-11.1v-.1c-.6-.1-1.5-.2-2.4-.3l.4-2.2c1.8-.2 4-.3 6-.3L126.9 24.8zM128.4 9c-1.2.0-2.1-1-2.1-2 0-1.3 1.1-2.3 2.4-2.3 1.2.0 2.1 1 2.1 2C130.7 8 129.6 9 128.4 9z"/></g></svg>