<svg xmlns="http://www.w3.org/2000/svg" xmlns:xlink="http://www.w3.org/1999/xlink" id="Layer_1" viewBox="0 0 281 46" style="enable-background:new 0 0 281 46;"><style>.st0{fill:#FFFFFF;}</style><g><path class="st0" d="M25 23.2c3.4.8 5.3 4 5.3 7.5C30.3 38.3 23.4 45 12 45c-2.7.0-6.9-.1-12-.1L7.8 4c3.4-.2 8.7-.3 13.2-.3 7.8.0 12.1 2.7 12.1 8.3.0 5.7-3.7 9.3-8.1 11.2zm-9.7 3.6c-1.5.0-3.3.0-4.2.1L9 38.3c.9.1 2.3.2 3.9.2 6 0 9.1-3.5 9.1-7.3C22.1 28.3 19.9 26.8 15.3 26.8zM19 10.1c-1.8.0-3.3.1-4.6.1l-2.1 10.7c.9.1 1.8.1 2.8.1 5.6.0 9.6-2.7 9.6-7.1C24.7 11.5 23.2 10.1 19 10.1z"/><path class="st0" d="M60.1 38.9c1.3.2 3.3.5 5 .6l-.9 4.8c-3.9.5-8.5.7-12.5.5.5-2.4 1.3-5.5 2.7-9.6h-.1c-2.4 4.4-6.6 10.2-12.6 10.2-4.6.0-7.1-3-7.1-9.4.0-11.4 6.1-21.9 19.3-21.9 3.6.0 7.3.2 10.7.9L60.1 38.9zM52.6 20.2c-7 0-10.2 8.1-10.2 14.4.0 3 .8 4.2 2.3 4.2 4.3.0 9.7-9.9 10.9-16.2l.4-1.9C55.1 20.4 54 20.2 52.6 20.2zM49.7 9.8c-2.4.0-4.1-1.9-4.1-4.1.0-2.5 2-4.3 4.3-4.3 2.4.0 4.1 1.8 4.1 4 0 2.5-2 4.4-4.3 4.4zM62 9.8c-2.3.0-4.1-1.9-4.1-4.1.0-2.4 2.1-4.2 4.4-4.2s4 1.8 4 4c0 2.4-2 4.3-4.3 4.3z"/><path class="st0" d="M92.1 21.7c-5.3-2-10.4 7-12.2 16.6l-1.2 6.5h-7.6l4.6-24v-.1c-1.3-.2-3.3-.5-5.1-.6l.9-4.8c3.9-.5 8.5-.7 12.5-.5-.4 2.4-1.2 5-2.5 9.1h.1c3.2-6.4 6.5-10.8 12.2-9.6L92.1 21.7z"/><path class="st0" d="M100.8 32.5c-.1.7-.2 1.7-.2 2.4.0 3.5 1.3 4.5 5.5 4.5 2.9.0 6-.7 8.8-1.8v5.9c-3.3 1.3-7.3 1.9-11.3 1.9C96 45.4 93 41.9 93 35.3c0-12.6 7.6-21.1 17-21.1 7.5.0 9.8 3.7 9.8 7.3C119.7 28.7 112.6 32.2 100.8 32.5zm8.3-12.7c-3.9.0-6.4 3.6-7.5 7.6 7-.2 10.6-1.7 10.6-4.9C112.2 20.8 111.1 19.8 109.1 19.8z"/><path class="st0" d="M149.5 44.8h-7.6l3.6-18.9c.7-3.7.1-5.2-1.8-5.2-4.1.0-9.6 9.4-10.8 16.5l-1.5 7.6h-7.6l4.6-24v-.1c-1.3-.2-3.3-.5-5.1-.6l.9-4.8c3.9-.5 8.6-.7 12.6-.5-.4 1.8-1 4.7-2.7 9.4l.1.1c2.8-5.4 7-10.1 12.7-10.1 5.9.0 7.6 4.1 6.5 10L149.5 44.8z"/><path class="st0" d="M183.6 44.8H176l3.6-18.9c.7-3.7.1-5.2-1.8-5.2-4.1.0-9.5 9.4-10.8 16.5l-1.5 7.6H158l7.3-38.2.1-.1c-1.4-.2-3.4-.5-5.1-.6l.8-4.8c3.9-.5 8.5-.7 12.9-.5l-2.4 12.8c-.5 2.7-1.4 5.7-3.2 10.7l.1.1c2.7-5.4 6.9-10.1 12.7-10.1 5.8.0 7.6 4.1 6.4 10L183.6 44.8z"/><path class="st0" d="M203.9 45.4c-8.4.0-11.8-4-11.8-10.8.0-12.6 8.5-20.5 18.1-20.5 8.6.0 11.8 4.6 11.8 11C222.1 37.5 213.4 45.4 203.9 45.4zM209.2 20.7c-5.6.0-9 6.7-9 12.7.0 3.3 1.3 5.3 4.8 5.3 5.4.0 9.1-6 9.1-12.7C214.1 22.6 212.7 20.7 209.2 20.7zM205.9 9.8c-2.4.0-4.1-1.9-4.1-4.1.0-2.5 2-4.3 4.3-4.3 2.4.0 4.1 1.8 4.1 4C210.2 7.9 208.2 9.8 205.9 9.8zm12.2.0c-2.3.0-4.1-1.9-4.1-4.1.0-2.4 2.1-4.2 4.4-4.2s4 1.8 4 4C222.4 7.9 220.4 9.8 218.1 9.8z"/><path class="st0" d="M226.1 45.9l4.8-25.1h-5.2l1.2-6h5.1l.4-2.4C234 4.4 238.1.0 246.7.0c1.6.0 3.3.2 4.9.5l-1.8 6.3c-1.2-.4-2.5-.5-3.6-.5-3.5.0-5.2 1.7-6.1 6.4l-.4 2.1h6.8l-1.2 6h-6.9L233.7 46 226.1 45.9z"/><path class="st0" d="M253.7 44.8h-7.6l7.3-38.2.1-.1c-1.4-.2-3.4-.5-5.1-.6l.8-4.8c3.9-.5 8.5-.7 12.9-.5L253.7 44.8z"/><path class="st0" d="M271.5 44.8h-7.6l4.6-24v-.1c-1.3-.2-3.3-.5-5.1-.6l.9-4.8c3.9-.5 8.5-.7 12.9-.5L271.5 44.8zM274.8 10.8c-2.7.0-4.5-2.1-4.5-4.4.0-2.9 2.4-5 5.1-5 2.7.0 4.5 2.1 4.5 4.2C279.8 8.7 277.4 10.8 274.8 10.8z"/></g></svg>